<svg xmlns="http://www.w3.org/2000/svg" fill="none" viewBox="0 0 178 32"><path fill="#000" d="M38.58 24.053h-3.547V0h3.547v10.34h12.56V0h3.504v24.053H51.14V13.116H38.58v10.937ZM57.248 32v-2.777h2.52c.599 0 1.097-.142 1.496-.427.399-.257.883-.969 1.453-2.136l1.495-3.29-6.836-16.79h3.675l4.913 13.116 5.255-13.117h3.717l-8.972 20.465c-.627 1.453-1.197 2.535-1.71 3.247-.512.712-1.082 1.168-1.708 1.367-.627.228-1.41.342-2.35.342h-2.948ZM87.233 24.48c-1.083 0-2.008-.17-2.777-.512-.77-.37-1.396-.797-1.88-1.282-.484-.484-.84-.925-1.068-1.324-.228-.427-.37-.698-.427-.812h-.086l-.555 3.503h-3.076V0h3.631l.043 10.68h.085c.029-.113.143-.384.342-.81.228-.428.57-.898 1.025-1.41.456-.513 1.069-.955 1.838-1.325.769-.37 1.737-.556 2.905-.556 2.535 0 4.4.84 5.596 2.521 1.225 1.68 1.838 3.845 1.838 6.494 0 2.62-.613 4.757-1.838 6.409-1.196 1.652-3.061 2.478-5.596 2.478Zm-1.026-3.076c1.254 0 2.236-.27 2.948-.811a4.392 4.392 0 0 0 1.538-2.18c.314-.91.47-1.865.47-2.862 0-.968-.17-1.894-.512-2.777a4.32 4.32 0 0 0-1.624-2.136c-.74-.57-1.737-.854-2.99-.854-1.653 0-2.892.54-3.718 1.623-.826 1.054-1.239 2.435-1.239 4.144 0 1.766.428 3.19 1.282 4.273.883 1.054 2.165 1.58 3.845 1.58ZM98.1 24.053V6.58h3.289l.299 4.743c.171-.77.499-1.51.983-2.222.513-.74 1.21-1.339 2.093-1.794.912-.484 2.065-.727 3.461-.727h.726v3.931h-.769c-1.737 0-3.076.228-4.016.684-.94.427-1.595 1.068-1.965 1.922-.37.826-.555 1.851-.555 3.076v7.861H98.1ZM114.006 4.657c-.769.028-1.282-.157-1.538-.556-.256-.398-.384-.897-.384-1.495 0-.513.128-.968.384-1.367s.769-.598 1.538-.598c.741 0 1.239.2 1.495.598.285.399.428.854.428 1.367 0 .598-.143 1.097-.428 1.495-.256.37-.754.556-1.495.556Zm-1.794 19.396V6.58h3.546v17.474h-3.546ZM127.395 24.48c-2.563 0-4.443-.825-5.64-2.477-1.196-1.68-1.794-3.817-1.794-6.409 0-2.677.598-4.842 1.794-6.494 1.225-1.68 3.105-2.52 5.64-2.52 1.139 0 2.093.185 2.862.555.769.37 1.382.812 1.838 1.324.484.513.826.983 1.025 1.41.228.427.356.698.384.812h.086L133.633 0h3.631v24.053h-3.076l-.555-3.503h-.086c-.057.114-.213.385-.47.812-.228.399-.584.84-1.068 1.324-.456.485-1.068.912-1.837 1.282-.769.342-1.695.513-2.777.513Zm1.025-3.076c1.652 0 2.92-.526 3.803-1.58.883-1.083 1.324-2.507 1.324-4.273 0-1.709-.427-3.09-1.282-4.144-.826-1.082-2.05-1.623-3.674-1.623-1.253 0-2.264.284-3.033.854a4.674 4.674 0 0 0-1.624 2.136 8.25 8.25 0 0 0-.47 2.777c0 .997.143 1.951.428 2.863.313.883.826 1.61 1.538 2.179.74.541 1.737.811 2.99.811ZM143.42 4.657c-.769.028-1.281-.157-1.538-.556-.256-.398-.384-.897-.384-1.495 0-.513.128-.968.384-1.367.257-.399.769-.598 1.538-.598.741 0 1.239.2 1.496.598.284.399.427.854.427 1.367 0 .598-.143 1.097-.427 1.495-.257.37-.755.556-1.496.556Zm-1.794 19.396V6.58h3.546v17.474h-3.546ZM154.494 24.053c-1.225 0-2.122-.313-2.692-.94-.541-.626-.811-1.58-.811-2.862V9.143h-2.692V6.579c.883 0 1.538-.07 1.965-.213.456-.171.755-.57.898-1.196.171-.656.256-1.68.256-3.077h2.948V6.58h4.016v2.564h-4.016v12.09h4.059v2.82h-3.931ZM160.177 32v-2.777h2.521c.598 0 1.096-.142 1.495-.427.399-.257.883-.969 1.453-2.136l1.495-3.29-6.836-16.79h3.674l4.914 13.116 5.255-13.117h3.717l-8.972 20.465c-.627 1.453-1.197 2.535-1.709 3.247-.513.712-1.083 1.168-1.709 1.367-.627.228-1.41.342-2.35.342h-2.948Z"/><path fill="#000" fill-rule="evenodd" d="M11.631 17.827H9.476L24.352 0v2.582c0 8.42-5.695 15.245-12.721 15.245Zm3.271-11.332h-2.18C5.696 6.495 0 13.32 0 21.739v2.613L14.902 6.495Z" clip-rule="evenodd"/></svg>